<?xml version="1.0" encoding="UTF-8"?><svg id="a" xmlns="http://www.w3.org/2000/svg" viewBox="0 0 500 500"><defs><style>.b{stroke-width:1.81px;}.b,.c,.d{fill:#fff;}.b,.c,.d,.e{stroke:#fff;}.b,.c,.e{stroke-linecap:round;stroke-linejoin:round;}.c{stroke-width:9px;}.c,.d{fill-rule:evenodd;}.d{stroke-miterlimit:10;}.e{fill:none;stroke-width:.96px;}</style></defs><path class="d" d="M39.23,475.04c-7.7,0-13.95-6.25-13.95-13.94s6.25-13.94,13.95-13.94,13.95,6.25,13.95,13.94-6.25,13.94-13.95,13.94Zm136.77-109.04c-38.89,39.94-88.6,95.57-129.11,124.17-19.2,13.55-51-18.23-37.44-37.41,28.81-40.76,103.49-108.98,143.55-147.76,8.24-7.97,0,10,9,18,12.56,11.17,13-2,28,17,8.31,10.52-5.74,17.51-14,26Z"/><path class="e" d="M39.23,475.04c-7.7,0-13.95-6.25-13.95-13.94s6.25-13.94,13.95-13.94,13.95,6.25,13.95,13.94-6.25,13.94-13.95,13.94Z"/><path class="c" d="M257.65,131.71c62.85,2,112.26,54.63,110.25,117.44-2,62.81-54.66,112.18-117.51,110.18-62.85-2-112.26-54.63-110.25-117.44,2-62.81,54.66-112.18,117.51-110.18Zm4.22-79.03c-1.13-.05-2.26-.08-3.4-.11-.31,13.48-7.1,21.43-20.37,23.85-13.49,.09-21.64-6.46-24.47-19.64-1.11,.24-2.21,.48-3.32,.74,3.05,13.13-1.55,22.52-13.79,28.17-13.04,3.44-22.57-.87-28.58-12.94-1.01,.51-2.02,1.02-3.03,1.54,6.22,11.96,4.11,22.2-6.35,30.71-11.78,6.57-22.08,4.76-30.91-5.43-.86,.74-1.71,1.49-2.55,2.24,9,10.04,9.5,20.48,1.49,31.33-9.77,9.29-20.2,10.1-31.29,2.42-.64,.93-1.28,1.87-1.91,2.81,11.22,7.48,14.3,17.48,9.24,29.97-7.15,11.43-17.05,14.8-29.7,10.12-.39,1.06-.78,2.13-1.15,3.19,12.73,4.46,18.2,13.37,16.41,26.73-4.08,12.85-12.83,18.58-26.25,17.18-.12,1.13-.22,2.25-.32,3.38,13.44,1.16,20.95,8.43,22.54,21.82-.76,13.46-7.81,21.18-21.15,23.17,.17,1.12,.34,2.24,.53,3.35,13.31-2.22,22.39,2.96,27.26,15.53,2.62,13.23-2.29,22.46-14.72,27.7,.44,1.04,.89,2.08,1.35,3.12,12.33-5.46,22.43-2.7,30.27,8.26,5.83,12.16,3.37,22.32-7.36,30.49,.69,.9,1.38,1.8,2.08,2.68,10.59-8.35,21.05-8.19,31.38,.48,8.67,10.33,8.82,20.78,.45,31.36,.89,.7,1.78,1.4,2.68,2.08,8.18-10.72,18.35-13.17,30.51-7.33,10.97,7.85,13.71,17.94,8.24,30.26,1.04,.46,2.07,.91,3.12,1.35,5.25-12.42,14.5-17.31,27.73-14.68,12.58,4.88,17.75,13.97,15.51,27.26,1.12,.19,2.24,.36,3.36,.53,2-13.33,9.73-20.37,23.2-21.11,13.39,1.6,20.66,9.12,21.81,22.55,1.13-.1,2.26-.2,3.38-.32-1.38-13.41,4.36-22.15,17.22-26.22,13.37-1.78,22.28,3.69,26.74,16.42,1.07-.37,2.14-.76,3.2-1.15-4.68-12.65-1.29-22.54,10.15-29.67,12.51-5.05,22.5-1.96,29.98,9.26,.94-.63,1.88-1.26,2.81-1.91-7.68-11.09-6.86-21.51,2.45-31.27,10.86-8,21.31-7.49,31.34,1.52,.76-.84,1.51-1.69,2.25-2.55-10.19-8.83-12-19.13-5.41-30.89,8.53-10.44,18.77-12.55,30.74-6.32,.52-1,1.04-2.01,1.54-3.02-12.07-6.02-16.38-15.55-12.93-28.58,5.66-12.24,15.06-16.82,28.2-13.76,.26-1.1,.5-2.21,.74-3.31-13.19-2.83-19.73-10.99-19.63-24.47,2.44-13.26,10.4-20.04,23.89-20.34-.03-1.13-.06-2.26-.11-3.39-13.48,.54-21.85-5.74-25.1-18.82-.94-13.45,5.09-21.99,18.08-25.63-.31-1.09-.62-2.18-.95-3.26-12.92,3.87-22.59-.13-29-11.99-4.25-12.79-.55-22.57,11.13-29.32-.57-.98-1.14-1.95-1.73-2.92-11.55,6.96-21.91,5.49-31.07-4.41-7.3-11.33-6.14-21.72,3.48-31.17-.79-.81-1.59-1.61-2.4-2.4-9.46,9.61-19.86,10.76-31.19,3.45-9.9-9.16-11.36-19.51-4.38-31.05-.97-.59-1.94-1.16-2.92-1.73-6.77,11.66-16.55,15.36-29.35,11.1-11.87-6.41-15.86-16.08-11.97-28.99-1.08-.33-2.17-.64-3.26-.95-3.65,12.98-12.21,18.99-25.67,18.04-13.09-3.26-19.36-11.63-18.81-25.1Z"/><path class="b" d="M257.65,131.71c62.85,2,112.26,54.63,110.25,117.44-2,62.81-54.66,112.18-117.51,110.18-62.85-2-112.26-54.63-110.25-117.44,2-62.81,54.66-112.18,117.51-110.18Zm4.22-79.03c-1.13-.05-2.26-.08-3.4-.11-.31,13.48-7.1,21.43-20.37,23.85-13.49,.09-21.64-6.46-24.47-19.64-1.11,.24-2.21,.48-3.32,.74,3.05,13.13-1.55,22.52-13.79,28.17-13.04,3.44-22.57-.87-28.58-12.94-1.01,.51-2.02,1.02-3.03,1.54,6.22,11.96,4.11,22.2-6.35,30.71-11.78,6.57-22.08,4.76-30.91-5.43-.86,.74-1.71,1.49-2.55,2.24,9,10.04,9.5,20.48,1.49,31.33-9.77,9.29-20.2,10.1-31.29,2.42-.64,.93-1.28,1.87-1.91,2.81,11.22,7.48,14.3,17.48,9.24,29.97-7.15,11.43-17.05,14.8-29.7,10.12-.39,1.06-.78,2.13-1.15,3.19,12.73,4.46,18.2,13.37,16.41,26.73-4.08,12.85-12.83,18.58-26.25,17.18-.12,1.13-.22,2.25-.32,3.38,13.44,1.16,20.95,8.43,22.54,21.82-.76,13.46-7.81,21.18-21.15,23.17,.17,1.12,.34,2.24,.53,3.35,13.31-2.22,22.39,2.96,27.26,15.53,2.62,13.23-2.29,22.46-14.72,27.7,.44,1.04,.89,2.08,1.35,3.12,12.33-5.46,22.43-2.7,30.27,8.26,5.83,12.16,3.37,22.32-7.36,30.49,.69,.9,1.38,1.8,2.08,2.68,10.59-8.35,21.05-8.19,31.38,.48,8.67,10.33,8.82,20.78,.45,31.36,.89,.7,1.78,1.4,2.68,2.08,8.18-10.72,18.35-13.17,30.51-7.33,10.97,7.85,13.71,17.94,8.24,30.26,1.04,.46,2.07,.91,3.12,1.35,5.25-12.42,14.5-17.31,27.73-14.68,12.58,4.88,17.75,13.97,15.51,27.26,1.12,.19,2.24,.36,3.36,.53,2-13.33,9.73-20.37,23.2-21.11,13.39,1.6,20.66,9.12,21.81,22.55,1.13-.1,2.26-.2,3.38-.32-1.38-13.41,4.36-22.15,17.22-26.22,13.37-1.78,22.28,3.69,26.74,16.42,1.07-.37,2.14-.76,3.2-1.15-4.68-12.65-1.29-22.54,10.15-29.67,12.51-5.05,22.5-1.96,29.98,9.26,.94-.63,1.88-1.26,2.81-1.91-7.68-11.09-6.86-21.51,2.45-31.27,10.86-8,21.31-7.49,31.34,1.52,.76-.84,1.51-1.69,2.25-2.55-10.19-8.83-12-19.13-5.41-30.89,8.53-10.44,18.77-12.55,30.74-6.32,.52-1,1.04-2.01,1.54-3.02-12.07-6.02-16.38-15.55-12.93-28.58,5.66-12.24,15.06-16.82,28.2-13.76,.26-1.1,.5-2.21,.74-3.31-13.19-2.83-19.73-10.99-19.63-24.47,2.44-13.26,10.4-20.04,23.89-20.34-.03-1.13-.06-2.26-.11-3.39-13.48,.54-21.85-5.74-25.1-18.82-.94-13.45,5.09-21.99,18.08-25.63-.31-1.09-.62-2.18-.95-3.26-12.92,3.87-22.59-.13-29-11.99-4.25-12.79-.55-22.57,11.13-29.32-.57-.98-1.14-1.95-1.73-2.92-11.55,6.96-21.91,5.49-31.07-4.41-7.3-11.33-6.14-21.72,3.48-31.17-.79-.81-1.59-1.61-2.4-2.4-9.46,9.61-19.86,10.76-31.19,3.45-9.9-9.16-11.36-19.51-4.38-31.05-.97-.59-1.94-1.16-2.92-1.73-6.77,11.66-16.55,15.36-29.35,11.1-11.87-6.41-15.86-16.08-11.97-28.99-1.08-.33-2.17-.64-3.26-.95-3.65,12.98-12.21,18.99-25.67,18.04-13.09-3.26-19.36-11.63-18.81-25.1Z"/><path class="d" d="M460.81,25.01c7.7,0,13.95,6.25,13.95,13.94s-6.25,13.94-13.95,13.94-13.95-6.25-13.95-13.94,6.25-13.94,13.95-13.94ZM240.54,220.68c38.89-39.94,172.1-182.21,212.61-210.81,19.2-13.55,51,18.23,37.44,37.41-28.81,40.77-171.9,174.49-211.95,213.27-8.24,7.97-15.47,19.41-28.39,19.41-16.81,0-30.45-13.64-30.45-30.43,0-13.4,12.48-20.36,20.74-28.85Z"/><path class="e" d="M460.81,25.01c7.7,0,13.95,6.25,13.95,13.94s-6.25,13.94-13.95,13.94-13.95-6.25-13.95-13.94,6.25-13.94,13.95-13.94ZM240.54,220.68c38.89-39.94,172.1-182.21,212.61-210.81,19.2-13.55,51,18.23,37.44,37.41-28.81,40.77-171.9,174.49-211.95,213.27-8.24,7.97-15.47,19.41-28.39,19.41-16.81,0-30.45-13.64-30.45-30.43,0-13.4,12.48-20.36,20.74-28.85Z"/></svg>